<!DOCTYPE svg PUBLIC "-//W3C//DTD SVG 1.1//EN" "http://www.w3.org/Graphics/SVG/1.1/DTD/svg11.dtd">
<!-- Uploaded to: SVG Repo, www.svgrepo.com, Transformed by: SVG Repo Mixer Tools -->
<svg fill="#000000" width="800px" height="800px" viewBox="-2.4 -2.4 28.80 28.80" role="img" xmlns="http://www.w3.org/2000/svg" transform="rotate(0)matrix(1, 0, 0, 1, 0, 0)" stroke="#000000" stroke-width="0.00024000000000000003">
<g id="SVGRepo_bgCarrier" stroke-width="0"/>
<g id="SVGRepo_tracerCarrier" stroke-linecap="round" stroke-linejoin="round"/>
<g id="SVGRepo_iconCarrier">
<title>C icon</title>
<path d="M17.023 9.216s-.386-3.293-3.955-3.385c-3.57-.091-5.402 2.47-5.402 6.13 0 3.66 2.026 6.588 5.498 6.588 3.473 0 3.86-3.66 3.86-3.66l6.656.366s.391 3.306-2.394 5.828C18.5 23.605 15.082 24.017 12.694 24c-2.388-.018-5.698.034-8.9-2.969C.595 18.03.05 15.113.05 12.248c0-2.866.607-6.661 4.414-9.54C7.05.754 9.673.033 12.296.033 23.246.032 23.98 9.28 23.98 9.28z"/>
</g>
</svg>